<?xml version="1.0" encoding="utf-8"?>
<!-- Generator: Adobe Illustrator 18.1.1, SVG Export Plug-In . SVG Version: 6.00 Build 0)  -->
<!DOCTYPE svg PUBLIC "-//W3C//DTD SVG 1.1//EN" "http://www.w3.org/Graphics/SVG/1.1/DTD/svg11.dtd">
<svg version="1.1" id="Layer_1" xmlns="http://www.w3.org/2000/svg" xmlns:xlink="http://www.w3.org/1999/xlink" x="0px" y="0px"
	 width="30px" height="30px" viewBox="0 0 30 30" enable-background="new 0 0 30 30" xml:space="preserve">
<path fill="#3FE078" d="M26.9,7.6c0.4,0.4,0.4,1.1,0,1.5L16.1,19.9c-0.4,0.4-1.1,1.1-1.5,1.5l-1.7,1.7c-0.4,0.4-1.1,0.4-1.5,0
	l-1.7-1.7c-0.4-0.4-1.1-1.1-1.5-1.5l-5.1-5.1c-0.4-0.4-0.4-1.1,0-1.5l1.7-1.7c0.4-0.4,1.1-0.4,1.5,0l5.1,5.1c0.4,0.4,1.1,0.4,1.5,0
	L23.7,5.9c0.4-0.4,1.1-0.4,1.5,0L26.9,7.6z"/>
</svg>
