<?xml version="1.0" encoding="utf-8"?>
<!-- Generator: Adobe Illustrator 18.1.1, SVG Export Plug-In . SVG Version: 6.00 Build 0)  -->
<!DOCTYPE svg PUBLIC "-//W3C//DTD SVG 1.1//EN" "http://www.w3.org/Graphics/SVG/1.1/DTD/svg11.dtd">
<svg version="1.1" id="Layer_1" xmlns="http://www.w3.org/2000/svg" xmlns:xlink="http://www.w3.org/1999/xlink" x="0px" y="0px"
	 width="161.3px" height="56.7px" viewBox="0 0 161.3 56.7" enable-background="new 0 0 161.3 56.7" xml:space="preserve">
<g>
	<g>
		<g>
			<polygon fill="#FFF6C5" points="3.5,52.6 22.9,42.9 42.3,52.6 61.8,42.9 61.8,4 42.3,13.8 22.9,4 3.5,13.8 			"/>
		</g>
		<g>
			<polygon fill="#B5E655" points="22.9,40.5 5.6,49.1 5.6,15.1 22.9,6.5 42.3,16.2 59.6,7.5 59.6,41.6 42.3,50.2 			"/>
		</g>
		<g>
			<rect x="22.6" y="4" fill="#424142" width="0.5" height="38.9"/>
		</g>
		<g>
			<rect x="42.1" y="13.8" fill="#424142" width="0.5" height="38.9"/>
		</g>
		<g>
			<polygon fill="#ECF0F1" points="59.5,34.3 52,38 52,45.2 59.7,41.5 			"/>
		</g>
		<g>
			<g>
				<path fill="#424142" d="M6.1,24.5c-0.2,0-0.4,0-0.7,0l0.1-1.1c0.3,0,0.6,0,0.9,0l0.1,1.1C6.4,24.5,6.2,24.5,6.1,24.5z"/>
			</g>
			<g>
				<path fill="#424142" d="M33.7,38.8c-0.4-0.1-0.8-0.1-1.2-0.3c-0.3-0.1-0.6-0.2-0.9-0.3l0.4-1c0.3,0.1,0.6,0.2,0.8,0.3
					c0.4,0.1,0.8,0.2,1.1,0.2L33.7,38.8z M35.5,38.8l-0.2-1.1c0.6-0.1,1.1-0.4,1.4-0.9l0.9,0.6C37.1,38.2,36.4,38.7,35.5,38.8z
					 M30,37.5c-0.7-0.4-1.3-0.9-1.8-1.4l0.8-0.7c0.4,0.5,0.9,0.9,1.5,1.2L30,37.5z M38.4,35.9l-1-0.3c0.2-0.6,0.3-1.2,0.3-2l1.1,0.1
					C38.6,34.6,38.5,35.3,38.4,35.9z M27.2,34.7c-0.4-0.6-0.6-1.3-0.9-2.1l1-0.3c0.2,0.7,0.5,1.3,0.8,1.9L27.2,34.7z M38.8,32.1
					h-1.1v-0.1c0-0.6,0-1.3,0-2l1.1,0c0,0.7,0,1.4,0,2V32.1z M25.9,31c-0.1-0.6-0.2-1.3-0.4-2.1l1.1-0.2c0.1,0.9,0.2,1.5,0.4,2.1
					L25.9,31z M37.6,28.3c0-0.7,0-1.4-0.1-2.2l1.1,0c0,0.7,0,1.4,0.1,2.1L37.6,28.3z M25.4,27.3c-0.1-0.7-0.2-1.4-0.3-2.1l1.1-0.2
					c0.1,0.7,0.2,1.5,0.3,2.1L25.4,27.3z M51.1,25.7c-0.2-0.7-0.4-1.3-0.7-1.9l1-0.5c0.3,0.6,0.6,1.4,0.8,2.1L51.1,25.7z M38.6,24.6
					l-1.1-0.1c0-0.8,0.1-1.6,0.3-2.2l1.1,0.2C38.8,23.1,38.7,23.8,38.6,24.6z M8.3,23.9l-0.5-1c0.6-0.3,1.1-0.7,1.7-1.2l0.7,0.8
					C9.6,23.1,9,23.6,8.3,23.9z M24.7,23.7c-0.2-0.7-0.5-1.3-0.8-1.8l0.9-0.6c0.4,0.6,0.7,1.3,0.9,2.1L24.7,23.7z M49.6,22.5
					c-0.4-0.6-0.8-1.1-1.3-1.5l0.7-0.8c0.6,0.5,1.1,1,1.5,1.7L49.6,22.5z M11.4,21.6l-0.7-0.8c0.5-0.4,1.1-0.8,1.8-1.3l0.6,0.9
					C12.4,20.8,11.8,21.3,11.4,21.6z M39.3,21.1l-1-0.4c0.4-0.8,0.9-1.4,1.5-1.9l0.6,0.9C39.9,20,39.6,20.5,39.3,21.1z M23,20.8
					c-0.5-0.4-1-0.8-1.6-1l0.4-1c0.7,0.3,1.4,0.7,2,1.2L23,20.8z M47,20.2c-0.6-0.3-1.2-0.5-1.9-0.7l0.3-1c0.8,0.2,1.5,0.5,2.1,0.8
					L47,20.2z M14.4,19.8l-0.4-1c0.7-0.3,1.4-0.5,2.2-0.6l0.2,1.1C15.7,19.3,15.1,19.5,14.4,19.8z M19.9,19.3
					c-0.6-0.1-1.2-0.2-1.9-0.2l-0.1,0l0-1.1l0.1,0c0.7,0,1.4,0.1,2.1,0.2L19.9,19.3z M41.7,19.2l-0.2-1.1c0.3,0,0.5-0.1,0.8-0.1
					c0.5,0,1,0,1.5,0l-0.1,1.1c-0.4,0-0.9,0-1.3,0C42.1,19.2,41.9,19.2,41.7,19.2z"/>
			</g>
			<g>
				<path fill="#424142" d="M51.5,28.3c0,0,0-0.4-0.1-1l1.1-0.1c0.1,0.7,0.1,1.1,0.1,1.1L51.5,28.3z"/>
			</g>
		</g>
		<g>
			<polygon fill="#F2594B" points="54.9,29.8 53.5,28.4 52.1,29.8 50.7,28.4 49.3,29.8 50.7,31.2 49.3,32.6 50.7,34 52.1,32.6 
				53.5,34 54.9,32.6 53.5,31.2 			"/>
		</g>
		<g>
			<path fill="#32C8F6" d="M51.9,38.9c-4.7-1.1-7.7,0.8-10.8,2.9c-3.1,2.2-6,2.7-10.3-1.2s-6.4-3.4-10.4-2.1c-4,1.3-4.2-1-8.6,0.2
				c-4.5,1.3-6.1,6.4-6.1,6.4v3.9h0.3l17-8.6l19.4,9.7l9.8-4.9"/>
		</g>
		<g>
			<polygon fill="#FFDD4B" points="56.1,12.2 57.3,10.1 58.5,10.8 			"/>
		</g>
		<g opacity="0.75">
			<polygon fill="#FFF6C5" points="22.8,4 23,43.2 42.2,52.4 42.1,13.7 			"/>
		</g>
		<g opacity="0.5">
			<polygon fill="#DED4AA" points="42.1,13.7 42.2,52.4 61.8,43.1 61.6,4 			"/>
		</g>
		<g opacity="0.5">
			<polygon fill="#DED4AA" points="3.4,13.7 3.5,52.4 23,43.1 22.8,4 			"/>
		</g>
		<g>
			<path fill="#424142" d="M3.2,53.1V13.6l19.7-9.9l19.4,9.7L62,3.6v39.5l-0.1,0.1l-19.6,9.8l-0.1-0.1l-19.3-9.7L3.2,53.1z
				 M22.9,42.6l0.1,0.1l19.3,9.7l19.2-9.6V4.5l-19.2,9.6L22.9,4.3L3.7,13.9v38.3L22.9,42.6z"/>
		</g>
		<g>
			<path fill="#424142" d="M42.3,50.5l-0.1-0.1l-19.3-9.7L5.4,49.6V14.9l17.5-8.8l19.4,9.7l17.5-8.8v34.6l-0.1,0.1L42.3,50.5z
				 M22.9,40.2l0.1,0.1l19.3,9.7l17-8.5V8l-17,8.5L22.9,6.8l-17,8.5v33.4L22.9,40.2z"/>
		</g>
		<g>
			<rect x="22.6" y="4" fill="#424142" width="0.5" height="38.9"/>
		</g>
		<g>
			<rect x="42.1" y="13.8" fill="#424142" width="0.5" height="38.9"/>
		</g>
		<g>
			<polygon fill="#424142" points="52.3,45.2 51.8,45.2 51.8,37.9 59.4,34.1 59.6,34.6 52.3,38.2 			"/>
		</g>
		<g>
			<g>
				<path fill="#424142" d="M6.1,24.5c-0.2,0-0.4,0-0.7,0l0.1-1.1c0.3,0,0.6,0,0.9,0l0.1,1.1C6.4,24.5,6.2,24.5,6.1,24.5z"/>
			</g>
			<g>
				<path fill="#424142" d="M33.7,38.8c-0.4-0.1-0.8-0.1-1.2-0.3c-0.3-0.1-0.6-0.2-0.9-0.3l0.4-1c0.3,0.1,0.6,0.2,0.8,0.3
					c0.4,0.1,0.8,0.2,1.1,0.2L33.7,38.8z M35.5,38.8l-0.2-1.1c0.6-0.1,1.1-0.4,1.4-0.9l0.9,0.6C37.1,38.2,36.4,38.7,35.5,38.8z
					 M30,37.5c-0.7-0.4-1.3-0.9-1.8-1.4l0.8-0.7c0.4,0.5,0.9,0.9,1.5,1.2L30,37.5z M38.4,35.9l-1-0.3c0.2-0.6,0.3-1.2,0.3-2l1.1,0.1
					C38.6,34.6,38.5,35.3,38.4,35.9z M27.2,34.7c-0.4-0.6-0.6-1.3-0.9-2.1l1-0.3c0.2,0.7,0.5,1.3,0.8,1.9L27.2,34.7z M38.8,32.1
					h-1.1v-0.1c0-0.6,0-1.3,0-2l1.1,0c0,0.7,0,1.4,0,2V32.1z M25.9,31c-0.1-0.6-0.2-1.3-0.4-2.1l1.1-0.2c0.1,0.9,0.2,1.5,0.4,2.1
					L25.9,31z M37.6,28.3c0-0.7,0-1.4-0.1-2.2l1.1,0c0,0.7,0,1.4,0.1,2.1L37.6,28.3z M25.4,27.3c-0.1-0.7-0.2-1.4-0.3-2.1l1.1-0.2
					c0.1,0.7,0.2,1.5,0.3,2.1L25.4,27.3z M51.1,25.7c-0.2-0.7-0.4-1.3-0.7-1.9l1-0.5c0.3,0.6,0.6,1.4,0.8,2.1L51.1,25.7z M38.6,24.6
					l-1.1-0.1c0-0.8,0.1-1.6,0.3-2.2l1.1,0.2C38.8,23.1,38.7,23.8,38.6,24.6z M8.3,23.9l-0.5-1c0.6-0.3,1.1-0.7,1.7-1.2l0.7,0.8
					C9.6,23.1,9,23.6,8.3,23.9z M24.7,23.7c-0.2-0.7-0.5-1.3-0.8-1.8l0.9-0.6c0.4,0.6,0.7,1.3,0.9,2.1L24.7,23.7z M49.6,22.5
					c-0.4-0.6-0.8-1.1-1.3-1.5l0.7-0.8c0.6,0.5,1.1,1,1.5,1.7L49.6,22.5z M11.4,21.6l-0.7-0.8c0.5-0.4,1.1-0.8,1.8-1.3l0.6,0.9
					C12.4,20.8,11.8,21.3,11.4,21.6z M39.3,21.1l-1-0.4c0.4-0.8,0.9-1.4,1.5-1.9l0.6,0.9C39.9,20,39.6,20.5,39.3,21.1z M23,20.8
					c-0.5-0.4-1-0.8-1.6-1l0.4-1c0.7,0.3,1.4,0.7,2,1.2L23,20.8z M47,20.2c-0.6-0.3-1.2-0.5-1.9-0.7l0.3-1c0.8,0.2,1.5,0.5,2.1,0.8
					L47,20.2z M14.4,19.8l-0.4-1c0.7-0.3,1.4-0.5,2.2-0.6l0.2,1.1C15.7,19.3,15.1,19.5,14.4,19.8z M19.9,19.3
					c-0.6-0.1-1.2-0.2-1.9-0.2l-0.1,0l0-1.1l0.1,0c0.7,0,1.4,0.1,2.1,0.2L19.9,19.3z M41.7,19.2l-0.2-1.1c0.3,0,0.5-0.1,0.8-0.1
					c0.5,0,1,0,1.5,0l-0.1,1.1c-0.4,0-0.9,0-1.3,0C42.1,19.2,41.9,19.2,41.7,19.2z"/>
			</g>
			<g>
				<path fill="#424142" d="M51.5,28.3c0,0,0-0.4-0.1-1l1.1-0.1c0.1,0.7,0.1,1.1,0.1,1.1L51.5,28.3z"/>
			</g>
		</g>
		<g>
			<path fill="#424142" d="M53.5,34.3l-1.4-1.4l-1.4,1.4l-1.8-1.8l1.4-1.4l-1.4-1.4l1.8-1.8l1.4,1.4l1.4-1.4l1.8,1.8l-1.4,1.4
				l1.4,1.4L53.5,34.3z M52.1,32.2l1.4,1.4l1-1l-1.4-1.4l1.4-1.4l-1-1l-1.4,1.4l-1.4-1.4l-1,1l1.4,1.4l-1.4,1.4l1,1L52.1,32.2z"/>
		</g>
		<g>
			<path fill="#424142" d="M5.9,45.3l-0.5-0.2c0.1-0.2,1.7-5.3,6.3-6.6c2.3-0.7,3.5-0.4,4.6-0.1c1.1,0.3,2.1,0.5,4-0.1
				c4-1.3,6.2-2,10.7,2.1c4.2,3.8,6.9,3.3,10,1.2c3.3-2.3,6.4-4.1,11.1-3l-0.1,0.5c-4.5-1.1-7.3,0.6-10.6,2.9
				c-3.2,2.2-6.2,2.8-10.6-1.2c-4.3-3.9-6.2-3.3-10.2-2c-2.1,0.7-3.2,0.4-4.3,0.1c-1.1-0.3-2.2-0.5-4.4,0.1
				C7.6,40.2,5.9,45.2,5.9,45.3z"/>
		</g>
		<g>
			<path fill="#424142" d="M55.7,12.6l1.5-2.7l1.5,0.9L55.7,12.6z M57.3,10.3l-0.9,1.5l1.7-1L57.3,10.3z"/>
		</g>
	</g>
	<g>
		<g>
			<path fill="#191919" d="M72.6,33.1V16.1h3.6v13.8h7.2v3.2H72.6z"/>
			<path fill="#191919" d="M83.2,26.9c0-3.5,2.4-6.4,6.5-6.4c4.1,0,6.5,2.9,6.5,6.4c0,3.5-2.4,6.4-6.5,6.4
				C85.7,33.4,83.2,30.4,83.2,26.9z M92.8,26.9c0-1.9-1.1-3.6-3.1-3.6s-3.1,1.7-3.1,3.6c0,1.9,1.1,3.6,3.1,3.6S92.8,28.8,92.8,26.9z
				"/>
			<path fill="#191919" d="M96.5,31.5l1.4-2.3c0.9,0.8,2.7,1.7,4.2,1.7c1.4,0,2.1-0.6,2.1-1.3c0-2-7.3-0.4-7.3-5.2
				c0-2.1,1.8-3.9,5-3.9c2.1,0,3.7,0.7,5,1.7l-1.3,2.2c-0.7-0.8-2.1-1.4-3.6-1.4c-1.2,0-1.9,0.5-1.9,1.2c0,1.8,7.3,0.3,7.3,5.3
				c0,2.2-1.9,3.9-5.3,3.9C99.8,33.4,97.8,32.6,96.5,31.5z"/>
			<path fill="#191919" d="M109.5,30v-6.4h-2v-2.8h2v-3.4h3.2v3.4h2.5v2.8h-2.5v5.5c0,0.8,0.4,1.3,1.1,1.3c0.5,0,0.9-0.2,1.1-0.4
				l0.7,2.4c-0.5,0.4-1.3,0.8-2.7,0.8C110.7,33.4,109.5,32.2,109.5,30z"/>
		</g>
		<g>
			<path fill="#DED4AA" d="M117.7,24.6c0-5.3,3.9-8.8,8.7-8.8c3,0,5.1,1.3,6.6,3.2l-1.7,1c-1.1-1.4-2.9-2.3-4.9-2.3
				c-3.7,0-6.5,2.8-6.5,6.9c0,4,2.8,6.9,6.5,6.9c2,0,3.7-1,4.5-1.8v-3.5h-5.8v-1.9h7.9v6.1c-1.6,1.8-3.9,2.9-6.7,2.9
				C121.6,33.4,117.7,29.9,117.7,24.6z"/>
			<path fill="#DED4AA" d="M134.7,33.1V20.8h1.9v2c1-1.3,2.4-2.2,4.1-2.2v2c-0.2-0.1-0.5-0.1-0.8-0.1c-1.2,0-2.8,1-3.3,2v8.7H134.7z
				"/>
			<path fill="#DED4AA" d="M141.9,17.8c0-0.7,0.6-1.3,1.3-1.3c0.7,0,1.3,0.6,1.3,1.3c0,0.7-0.6,1.3-1.3,1.3
				C142.5,19,141.9,18.5,141.9,17.8z M142.3,33.1V20.8h1.9v12.3H142.3z"/>
			<path fill="#DED4AA" d="M155.6,33.1v-1.8c-0.9,1.2-2.4,2.1-4.1,2.1c-3.2,0-5.5-2.4-5.5-6.4c0-3.9,2.2-6.4,5.5-6.4
				c1.6,0,3.1,0.8,4.1,2.2v-6.5h1.9v16.9H155.6z M155.6,29.7v-5.6c-0.7-1.1-2.2-2-3.7-2c-2.5,0-3.9,2-3.9,4.7s1.5,4.7,3.9,4.7
				C153.4,31.7,154.9,30.8,155.6,29.7z"/>
		</g>
	</g>
</g>
</svg>
